# xmcd
#
# Track frame offsets: 
#        150
#        24605
#        40606
#        58432
#        73521
#        93290
#        109332
#        126730
#        143827
#        157956
#        180199
#        198569
#        214037
#        230810
#        246922
#        266798
#
# Disc length: 3814 seconds
#
# Revision: 1
# Processed by: cddbd v1.5.2PL0 Copyright (c) Steve Scherf et al.
# Submitted via: ExactAudioCopy v0.99pb4
#
DISCID=f10ee410
DTITLE=Various Artist - Country Heat 2010
DYEAR=2009
DGENRE=Country
TTITLE0=Brad Paisley - Start A Band (Duet With Keith Urban)
TTITLE1=Montgomery Gentry - One In Every Crowd
TTITLE2=Martina McBride - Ride
TTITLE3=Kenny Chesney - Out Last Night
TTITLE4=Zac Brown Band - Toes
TTITLE5=Brooks and Dunn - Cowgirls Don't Cry
TTITLE6=Emerson Drive - Believe
TTITLE7=Kellie Pickler - Best Days Of Your Life
TTITLE8=Dean Brody - Dirt Roads Scholar
TTITLE9=Aaron Pritchett - How Do I Get There
TTITLE10=Alan Jackson - Country Boy
TTITLE11=Jason Aldean - Big Green Tractor
TTITLE12=Johnny Reid - A Woman Like You
TTITLE13=Chris Young - Gettin' You Home
TTITLE14=George Canyon - In Your Arms Again (Feat. Crystal Shawanda)
TTITLE15=Carrie Underwood - I Told You So
EXTD=
EXTT0=Brad Paisley w Kieth Urban
EXTT1=Montgomery Gentry
EXTT2=Martina McBride
EXTT3=Kenny Chesney
EXTT4=Zac Brown Band
EXTT5=Brooks and Dunn
EXTT6=Emerson Drive
EXTT7=Kellie Pickler
EXTT8=Dean Brody
EXTT9=Aaron Pritchett
EXTT10=Alan Jackson
EXTT11=Jason Aldean
EXTT12=Johnny Reid
EXTT13=Chris Young
EXTT14=George Canyon w/ Crystal Shawanda
EXTT15=
PLAYORDER=
